<svg fill="none" height="24" viewBox="0 0 24 24" width="24" xmlns="http://www.w3.org/2000/svg"><path d="m17.5324 15.106c-.5537 0-1.003-.4493-1.003-1.0031 0-.5537.4493-1.003 1.003-1.003.5538 0 1.0031.4493 1.0031 1.003 0 .5538-.4493 1.0031-1.0031 1.0031zm-11.04394 0c-.55376 0-1.00304-.4493-1.00304-1.0031 0-.5537.44928-1.003 1.00304-1.003.55377 0 1.00305.4493 1.00305 1.003 0 .5538-.44928 1.0031-1.00305 1.0031zm11.39924-6.01829 2.0061-3.45843c.1149-.19852.0418-.44928-.1568-.56421-.1985-.11494-.4492-.0418-.5642.15672l-2.027 3.50022c-1.5463-.71049-3.2808-1.10753-5.1301-1.10753-1.8494 0-3.59428.39704-5.14065 1.09708l-2.02699-3.50022c-.11493-.19852-.36569-.27165-.56421-.15672s-.27166.36569-.15673.56421l1.99565 3.45843c-3.42708 1.87024-5.777972 5.33914-6.12277 9.44534h24c-.3343-4.0958-2.6748-7.5646-6.1123-9.43489z" fill="#000"/></svg>