<svg fill="none" xmlns="http://www.w3.org/2000/svg" class="dark-toggle-icon">
      <g clip-path="url(#clip0)">
        <path
          d="M10.054.188c-.493 0-.822.33-.822.823v.822c0 .493.329.822.822.822.493 0 .822-.33.822-.822V1.01c0-.494-.329-.823-.822-.823zM3.642 2.82a.811.811 0 00-.575.247.795.795 0 000 1.15l.575.576a.795.795 0 001.15 0 .795.795 0 000-1.151l-.575-.575a.814.814 0 00-.575-.247zm12.824 0a.813.813 0 00-.576.247l-.575.575a.795.795 0 000 1.15.795.795 0 001.15 0l.576-.575a.794.794 0 000-1.15.811.811 0 00-.575-.247zm-6.412 1.48a5.754 5.754 0 100 11.508 5.754 5.754 0 000-11.508zM1.01 9.23c-.493 0-.822.329-.822.822 0 .493.33.822.822.822h.823c.493 0 .822-.329.822-.822 0-.493-.33-.822-.822-.822H1.01zm17.263 0c-.493 0-.822.329-.822.822 0 .493.329.822.822.822h.822c.494 0 .822-.329.822-.822 0-.493-.328-.822-.822-.822h-.822zM4.217 15.067a.813.813 0 00-.575.247l-.575.575a.795.795 0 000 1.151.795.795 0 001.15 0l.576-.575a.795.795 0 000-1.151.811.811 0 00-.576-.247zm11.673 0a.811.811 0 00-.575.247.795.795 0 000 1.15l.575.576a.795.795 0 001.151 0 .795.795 0 000-1.15l-.575-.576a.813.813 0 00-.576-.247zm-5.836 2.384c-.493 0-.822.329-.822.822v.822c0 .494.329.822.822.822.493 0 .822-.329.822-.822v-.822c0-.493-.329-.822-.822-.822z"
          fill="rgb(241, 196, 15)"
        />
      </g>
      <g clip-path="url(#clip1)">
        <path
          d="M37.172 33.668a.501.501 0 00-.556-.155c-.555.2-1.156.301-1.79.301a5.5 5.5 0 01-5.494-5.494c0-1.823.9-3.52 2.408-4.541a.5.5 0 00-.209-.908 4.858 4.858 0 00-.7-.045c-4.132 0-7.492 3.36-7.492 7.492 0 4.131 3.36 7.492 7.492 7.492a7.438 7.438 0 006.38-3.564.503.503 0 00-.039-.578z"
          fill="rgb(241, 196, 15)"
        />
      </g>
      <path
        stroke="rgb(241, 196, 15)"
        stroke-linecap="round"
        stroke-linejoin="round"
        d="M13.827 28.416L28.393 13.85"
      />
      <defs>
        <clipPath id="clip0">
          <path fill="rgb(241, 196, 15)" d="M.19.19h19.725v19.725H.19z" />
        </clipPath>
        <clipPath id="clip1">
          <path fill="#fff" d="M22.826 22.826H37.81V37.81H22.826z" />
        </clipPath>
      </defs>
    </svg>